<svg width="119.000000" height="25.000000" viewBox="0 0 119 25" fill="none" xmlns="http://www.w3.org/2000/svg" xmlns:xlink="http://www.w3.org/1999/xlink"><defs/><path id="Vector" d="M112.62 21.3C114.18 21.3 115.52 20.91 116.64 20.13C117.92 19.23 118.57 17.91 118.6 16.16C118.65 13.7 117.47 11.94 115.09 10.86C113.93 10.45 112.56 10.13 110.98 9.92C109.4 9.72 108.24 9.48 107.51 9.2C106.4 8.81 105.84 8.26 105.84 7.55C105.84 7.04 105.98 6.64 106.26 6.35C106.54 6.06 106.93 5.91 107.43 5.91L115.89 5.91L117.4 2.24L107.43 2.24C105.81 2.24 104.43 2.7 103.29 3.63C102.05 4.63 101.43 5.94 101.43 7.55C101.43 9.65 102.44 11.19 104.45 12.14C105.6 12.58 107.12 12.95 109 13.26C110.88 13.57 112.21 13.89 112.98 14.24C113.8 14.61 114.21 15.24 114.2 16.11C114.21 16.63 114.06 17.03 113.76 17.32C113.48 17.52 113.1 17.63 112.62 17.63L97.35 17.62L95.84 21.3L112.62 21.3Z" fill="#FD8301" fill-opacity="1.000000" fill-rule="nonzero"/><path id="Vector" d="M78.52 22.8L88.59 0.75L93.69 0.75L103.77 22.8L78.52 22.8ZM92.65 16.03L91.16 12.58L89.72 16.03L92.65 16.03Z" fill="#FD8301" fill-opacity="1.000000" fill-rule="nonzero"/><path id="Vector" d="M88.59 0.75L93.69 0.75L103.77 22.8L78.52 22.8L88.59 0.75ZM91.16 12.58L89.72 16.03L92.65 16.03L91.16 12.58Z" stroke="#0C1016" stroke-opacity="1.000000" stroke-width="3.000000"/><path id="Vector" d="M70.17 6.02L77.1 6.02C77.44 6.02 77.75 6.16 78.04 6.46C78.47 6.87 78.68 7.67 78.68 8.85C78.68 10.01 78.47 10.81 78.04 11.22C77.75 11.51 77.44 11.66 77.1 11.66L71.73 11.66L70.17 15.44L70.17 6.02ZM70.17 15.44L77.1 15.44C78.93 15.44 80.46 14.82 81.71 13.57C82.83 12.45 83.39 10.88 83.39 8.85C83.39 6.81 82.83 5.24 81.71 4.11C80.46 2.87 78.93 2.25 77.1 2.25L65.47 2.25L65.47 21.3L70.17 21.3L70.17 15.44Z" fill="#FD8301" fill-opacity="1.000000" fill-rule="nonzero"/><path id="Vector" d="M26.09 21.35C25.81 20.75 25.62 20.22 25.52 19.77C25.42 19.32 25.32 18.56 25.23 17.48L9.21 17.53C8.07 17.53 7.06 17.1 6.2 16.24C5.2 15.24 4.7 13.7 4.7 11.63C4.7 9.75 5.2 8.31 6.2 7.31C7.06 6.45 8.07 6.02 9.21 6.02L23.51 6.01C23.96 5.12 24.39 4.45 24.8 4C25.07 3.71 25.59 3.14 26.38 2.28L9.21 2.25C6.58 2.25 4.35 3.16 2.54 4.99C0.84 6.67 0 8.89 0 11.63C0 14.57 0.84 16.88 2.54 18.57C4.35 20.39 6.58 21.3 9.21 21.3L26.09 21.35L26.09 21.35Z" fill="#FFFFFF" fill-opacity="1.000000" fill-rule="nonzero"/><path id="Vector" d="M62.79 21.3L62.79 2.25L59.51 2.25L50.2 17.41L52.25 20.71L58.4 10.94L58.4 21.3L62.79 21.3Z" fill="#FD8301" fill-opacity="1.000000" fill-rule="nonzero"/><path id="Vector" d="M32.04 0.55C34.91 0.43 38.07 0.53 39.77 2.24C41.31 3.77 41.41 6.73 41.24 9.72C41.21 10.43 41.17 11.13 41.17 11.78C41.17 15.41 40.12 18.16 38.18 20.09C36.08 22.21 33.5 23.27 30.45 23.27L28.23 23.27C27.64 23.27 27 23.32 26.35 23.36L25.57 23.41C23.07 23.57 20.66 23.36 19.15 21.86C17.56 20.27 17.39 16.81 17.48 13.51C17.5 12.91 17.51 12.33 17.51 11.78C17.51 8.37 18.54 5.71 20.49 3.77C22.6 1.66 25.17 0.6 28.23 0.6L30.45 0.6C30.94 0.6 31.48 0.57 32.04 0.55Z" fill="#FFFFFF" fill-opacity="1.000000" fill-rule="nonzero"/><path id="Vector" d="M39.77 2.24C41.31 3.77 41.41 6.73 41.24 9.72C41.21 10.43 41.17 11.13 41.17 11.78C41.17 15.41 40.12 18.16 38.18 20.09C36.08 22.21 33.5 23.27 30.45 23.27L28.23 23.27C27.64 23.27 27 23.32 26.35 23.36L25.57 23.41C23.07 23.57 20.66 23.36 19.15 21.86C17.56 20.27 17.39 16.81 17.48 13.51C17.5 12.91 17.51 12.33 17.51 11.78C17.51 8.37 18.54 5.71 20.49 3.77C22.6 1.66 25.17 0.6 28.23 0.6L30.45 0.6C30.94 0.6 31.48 0.57 32.04 0.55C34.91 0.43 38.07 0.53 39.77 2.24Z" stroke="#090C10" stroke-opacity="1.000000" stroke-width="3.000000"/><path id="Vector" d="M46.09 21.3L46.09 10.94L49.46 16.24L51.51 12.96L44.98 2.25L41.7 2.25L41.7 21.3L46.09 21.3Z" fill="#FFFFFF" fill-opacity="1.000000" fill-rule="nonzero"/><path id="Vector" d="M36.73 5.04L32.17 14.67L26.89 9.4L36.73 5.04Z" fill="#C74923" fill-opacity="1.000000" fill-rule="evenodd"/><path id="Vector" d="M22.53 19.23L32.17 14.67L26.89 9.4L22.53 19.23Z" fill="#1353A2" fill-opacity="1.000000" fill-rule="evenodd"/><path id="Vector" d="M30.24 12.74C29.85 13.13 29.21 13.13 28.82 12.74C28.43 12.35 28.43 11.71 28.82 11.32C29.21 10.93 29.85 10.93 30.24 11.32C30.63 11.71 30.63 12.35 30.24 12.74Z" fill="#FFFFFF" fill-opacity="1.000000" fill-rule="evenodd"/></svg>