<svg width="59.000000" height="28.000000" viewBox="0 0 59 28" fill="none" xmlns="http://www.w3.org/2000/svg" xmlns:xlink="http://www.w3.org/1999/xlink"><path id="Vector" d="M43.26 0C47.24 -0.12 50.16 1.09 52.52 2.84C54.64 4.43 56.59 6.9 57.42 9.94C58.53 14.06 57.96 16.53 56.53 19.91C56.03 21.09 54.73 22.64 53.96 23.41C49.33 28.05 41.91 28.92 36.25 25.26C35.41 24.72 33.44 23.1 33.04 22.46C33.25 22.04 37.13 18.28 37.35 18.2C37.78 18.46 38.32 19.12 38.77 19.5C39.31 19.96 39.74 20.26 40.42 20.59C44.65 22.67 49.79 20.53 51.23 16.71C54.33 8.43 44.27 2.55 38.15 8.6L24.64 22.04C22.89 23.77 21.4 25.47 18.45 26.67C9.48 30.34 7.62e-6 24.13 -0.82 15.5C-1.4 9.44 1.62 4.18 6.78 1.65C12.17 -1 18.65 0 22.95 4.19L23.73 4.97L24.06 5.3C25.59 6.82 28.16 9.36 28.52 9.46C28.83 9.27 34.01 4.06 34.64 3.48C36.55 1.76 39.84 0.1 43.26 0ZM7.94 8.15C4.36 11.09 4.29 16.73 7.98 19.81C9.46 21.04 11.95 22 14.6 21.47C17.26 20.93 18.36 19.62 19.79 18.21C20.37 17.63 23.89 14.25 24.03 13.86C23.77 13.38 20.23 10.11 19.75 9.64C18.25 8.16 17.2 6.97 14.49 6.43C11.86 5.91 9.48 6.9 7.94 8.15Z" fill="#1253A2" fill-opacity="1.000000" fill-rule="evenodd"/></svg>