<svg width="14.000000" height="12.000000" viewBox="0 0 14 12" fill="none" xmlns="http://www.w3.org/2000/svg" xmlns:xlink="http://www.w3.org/1999/xlink">
	<path id="Path-12" d="M10.92 5.67L-0.43 5.66C-0.75 5.66 -1 5.41 -1 5.1L-1 5.09C-1 4.78 -0.74 4.52 -0.42 4.52L10.9 4.48L6.46 0.01C6.23 -0.22 6.23 -0.59 6.45 -0.83C6.67 -1.06 7.03 -1.06 7.26 -0.85C7.26 -0.84 7.27 -0.84 7.27 -0.84L12.87 4.75C13.06 4.95 13.06 5.26 12.87 5.46L12.87 5.46L7.18 11.1C6.95 11.32 6.58 11.32 6.35 11.09C6.35 11.09 6.35 11.09 6.34 11.08C6.11 10.84 6.12 10.46 6.36 10.22L10.92 5.67Z" fill="#FFFFFF" fill-opacity="1.000000" fill-rule="evenodd"/>
</svg>
