<svg width="31.000000" height="22.000000" viewBox="0 0 31 22" fill="none" xmlns="http://www.w3.org/2000/svg" xmlns:xlink="http://www.w3.org/1999/xlink">
	<path id="Path-12" d="M0.16 10.59C0.16 6 0.52 3.25 1.25 2.35C1.75 1.62 2.22 1.12 2.67 0.84C3.12 0.56 3.71 0.4 4.44 0.37C9.52 0.12 13.38 -0.01 16.02 1.9e-6C18.66 0 22.16 0.12 26.52 0.37C27.22 0.51 27.84 0.77 28.39 1.16C28.93 1.54 29.3 2.04 29.48 2.64C30.09 4.04 30.39 6.52 30.39 10.1C30.39 13.68 30.17 16.28 29.72 17.91C29.49 18.8 29.04 19.51 28.39 20.04C27.73 20.57 26.85 20.83 25.74 20.82C20.89 21.06 17.25 21.17 14.82 21.17C12.4 21.16 8.93 21.02 4.4 20.74C3.79 20.74 3.26 20.64 2.83 20.43C2.39 20.22 1.96 19.83 1.52 19.24C0.61 18.07 0.16 15.19 0.16 10.59Z" stroke="#1253A2" stroke-opacity="1.000000" stroke-width="1.000000"/>
	<path id="Combined-Shape" d="M12.21 6.03L12.21 6.04L20.37 10.3L19.37 10.77L12.2 14.47L12.21 6.03L12.21 6.03Z" fill="#1253A2" fill-opacity="1.000000" fill-rule="evenodd"/>
</svg>
